<svg width="112" height="45" viewBox="0 0 112 45" fill="none" xmlns="http://www.w3.org/2000/svg">
<path d="M0 44.0842V30.0351H3.94066V33.5378C4.26072 32.2695 4.77472 31.3236 5.48266 30.7014C6.19298 30.0803 7.04607 29.7686 8.04314 29.7686C8.85816 29.7686 9.55182 29.9565 10.1229 30.3301C10.6964 30.7014 11.1224 31.2153 11.3984 31.8721L9.71839 34.7895C9.33765 34.1137 8.91408 33.6544 8.44767 33.4093C7.98127 33.1654 7.51248 33.0429 7.04369 33.0429C6.10136 33.0429 5.34702 33.3986 4.78305 34.1089C4.22146 34.8204 3.94066 35.8591 3.94066 37.2262V44.0842H0Z" fill="#F35121"/>
<path d="M17.5338 44.3507C16.344 44.3507 15.2922 44.1532 14.3784 43.7606C13.4646 43.3644 12.6936 42.8254 12.0654 42.1424C11.4395 41.4571 10.9672 40.6802 10.6471 39.8104C10.3294 38.9419 10.1712 38.0257 10.1712 37.0644C10.1712 36.3481 10.2711 35.639 10.471 34.937C10.6709 34.2362 10.966 33.5747 11.3563 32.9524C11.7465 32.3314 12.232 31.7805 12.8126 31.301C13.3956 30.8227 14.0714 30.4479 14.84 30.1778C15.6075 29.9054 16.4653 29.7686 17.4148 29.7686C18.4618 29.7686 19.4018 29.9613 20.237 30.3444C21.0711 30.7252 21.7838 31.2558 22.3739 31.934C22.9641 32.6134 23.4138 33.4034 23.7256 34.3041C24.0361 35.2059 24.192 36.1744 24.192 37.2119V37.8116H14.4307C14.4748 38.504 14.608 39.1144 14.8305 39.6439C15.0518 40.1709 15.3969 40.5862 15.8633 40.8908C16.3297 41.193 16.94 41.3429 17.6956 41.3429C18.5296 41.3429 19.2043 41.1597 19.7183 40.7908C20.2323 40.4196 20.5749 39.9377 20.7463 39.344H24.2348C24.1265 39.9223 23.9064 40.5041 23.5733 41.0907C23.2401 41.6748 22.7939 42.2138 22.2359 42.7088C21.6767 43.2014 21.0044 43.5976 20.218 43.8986C19.4339 44.1996 18.5392 44.3507 17.5338 44.3507ZM14.4878 35.7461H20.2941C20.2394 34.7633 19.9634 34.0221 19.466 33.5236C18.9675 33.0262 18.306 32.7764 17.4814 32.7764C16.6652 32.7764 15.9965 33.0357 15.473 33.5521C14.9495 34.0661 14.6211 34.7978 14.4878 35.7461Z" fill="#F35121"/>
<path d="M30.3539 44.3507C28.7739 44.3507 27.4425 44.0735 26.3609 43.5178C25.2782 42.9634 24.4536 42.2162 23.8861 41.2763L26.5227 39.4487C27.0082 40.1507 27.5567 40.6897 28.1694 41.0669C28.7846 41.4452 29.5496 41.6332 30.4634 41.6332C31.1452 41.6332 31.7151 41.5261 32.172 41.3096C32.6289 41.0907 32.8573 40.7325 32.8573 40.234C32.8573 39.8188 32.6812 39.4987 32.329 39.2726C31.9792 39.0442 31.4545 38.8586 30.7537 38.7158L28.3598 38.2113C25.6399 37.6533 24.2811 36.3446 24.2811 34.285C24.2811 33.6544 24.4251 33.0655 24.7142 32.5194C25.0022 31.9744 25.4103 31.4949 25.9373 31.0821C26.4668 30.6704 27.0998 30.348 27.8363 30.116C28.5752 29.8852 29.389 29.7686 30.2778 29.7686C31.7686 29.7686 33.0453 30.0493 34.109 30.6109C35.1751 31.1701 35.9794 31.9721 36.5219 33.0191L33.6854 34.4564C33.3546 33.8186 32.9025 33.332 32.329 32.9953C31.7579 32.6562 31.0643 32.486 30.2492 32.486C29.5734 32.486 29.0261 32.6074 28.6073 32.8477C28.1909 33.0857 27.9838 33.445 27.9838 33.9233C27.9838 34.216 28.1052 34.4587 28.3503 34.6515C28.5942 34.8418 29.0594 35.0084 29.7447 35.1512L32.4052 35.6699C33.4712 35.8734 34.3255 36.1744 34.9704 36.5742C35.6141 36.974 36.0805 37.4475 36.3696 37.9924C36.6576 38.5385 36.8027 39.1441 36.8027 39.8104C36.8027 40.7052 36.5386 41.4952 36.0127 42.1805C35.4892 42.8635 34.7443 43.3965 33.7806 43.7796C32.8192 44.1603 31.677 44.3507 30.3539 44.3507Z" fill="#F35121"/>
<path d="M37.4126 44.0838V30.0347H41.3533V44.0838H37.4126ZM37.3603 27.6789V23.9477H41.3914V27.6789H37.3603Z" fill="#F35121"/>
<path d="M48.6514 44.3525C47.7876 44.3525 46.9786 44.1681 46.2242 43.8004C45.4723 43.4328 44.8131 42.92 44.2491 42.2632C43.684 41.6065 43.2414 40.8438 42.9213 39.9741C42.6036 39.1019 42.4454 38.1644 42.4454 37.1614C42.4454 36.1596 42.6036 35.2232 42.9213 34.3535C43.2414 33.4813 43.684 32.7163 44.2491 32.0595C44.8131 31.4028 45.4723 30.8912 46.2242 30.5223C46.9786 30.1547 47.7876 29.9703 48.6514 29.9703C49.0667 29.9703 49.5093 30.025 49.9793 30.1321C50.4516 30.2368 50.9121 30.4164 51.3595 30.6699C51.8068 30.9245 52.2125 31.2719 52.5778 31.7121C52.9419 32.15 53.2215 32.6973 53.4154 33.354V23.5787H55.6523V44.086H53.4154V40.9687C53.2215 41.6255 52.9419 42.1752 52.5778 42.6154C52.2125 43.0533 51.8068 43.3995 51.3595 43.6529C50.9121 43.9075 50.4516 44.086 49.9793 44.1907C49.5093 44.2978 49.0667 44.3525 48.6514 44.3525ZM45.0011 37.1614C45.0011 38.2631 45.1689 39.2114 45.5056 40.0074C45.8447 40.801 46.3265 41.4137 46.9524 41.8444C47.577 42.2727 48.329 42.4869 49.2083 42.4869C50.1411 42.4869 50.9287 42.2573 51.5736 41.7968C52.2173 41.334 52.7028 40.701 53.0299 39.8979C53.3595 39.096 53.5249 38.1834 53.5249 37.1614C53.5249 36.1405 53.3595 35.228 53.0299 34.4249C52.7028 33.6229 52.2173 32.9912 51.5736 32.5307C50.9287 32.0679 50.1411 31.8359 49.2083 31.8359C48.329 31.8359 47.577 32.0524 46.9524 32.4831C46.3265 32.9114 45.8447 33.5242 45.5056 34.3202C45.1689 35.1137 45.0011 36.0608 45.0011 37.1614Z" fill="#F97B57"/>
<path d="M64.1213 44.3537C63.0743 44.3537 62.1296 44.1693 61.2896 43.8016C60.4519 43.434 59.7333 42.92 59.1336 42.2596C58.534 41.5969 58.0735 40.8307 57.7535 39.961C57.4358 39.0888 57.2775 38.156 57.2775 37.1626C57.2775 36.2298 57.4358 35.3338 57.7535 34.4736C58.0735 33.611 58.5292 32.8436 59.1194 32.1702C59.7095 31.4944 60.4103 30.9602 61.2229 30.5663C62.0344 30.1701 62.9387 29.9714 63.9357 29.9714C64.8745 29.9714 65.7276 30.1499 66.4962 30.5045C67.2636 30.8602 67.9252 31.3611 68.4808 32.0084C69.0353 32.6556 69.4636 33.4195 69.7658 34.2975C70.0668 35.1768 70.2179 36.1417 70.2179 37.1911V37.667H59.8475C59.8915 38.5998 60.0724 39.4279 60.3901 40.1513C60.7101 40.8747 61.1873 41.4458 61.8226 41.8646C62.4568 42.2811 63.2575 42.4881 64.226 42.4881C65.2124 42.4881 66.0679 42.2478 66.7913 41.7647C67.5147 41.2793 68.0263 40.5701 68.3285 39.6373H70.3274C70.2037 40.2441 69.9716 40.8295 69.6325 41.3935C69.2958 41.9551 68.8663 42.4583 68.3428 42.9021C67.8193 43.3471 67.2018 43.7005 66.4914 43.9634C65.7799 44.2228 64.9899 44.3537 64.1213 44.3537ZM59.8999 35.8823H67.8098C67.73 34.5974 67.3624 33.6027 66.7056 32.8983C66.0488 32.1916 65.1255 31.837 63.9357 31.837C63.1707 31.837 62.5044 32.0107 61.9368 32.3558C61.3681 32.702 60.9136 33.1791 60.5709 33.7883C60.2306 34.3951 60.007 35.0923 59.8999 35.8823Z" fill="#F97B57"/>
<path d="M81.8572 35.4064C81.8572 33.0625 80.7733 31.8894 78.6067 31.8894C77.6929 31.8894 76.9041 32.0845 76.2413 32.4748C75.581 32.865 75.0729 33.4218 74.7184 34.1452C74.3626 34.8686 74.1853 35.7336 74.1853 36.739V44.0872H71.9485V30.2379H74.1853V33.6455C74.4233 32.8841 74.7719 32.2309 75.2324 31.6847C75.6952 31.1398 76.2485 30.7174 76.8933 30.4188C77.537 30.1213 78.2497 29.9714 79.0303 29.9714C80.6484 29.9714 81.8965 30.445 82.7758 31.3897C83.6539 32.3356 84.0941 33.6741 84.0941 35.4064V44.0872H81.8572V35.4064Z" fill="#F97B57"/>
<path d="M95.9555 35.592C95.8662 34.2952 95.5224 33.3445 94.9227 32.7413C94.323 32.1392 93.4771 31.837 92.386 31.837C91.408 31.837 90.5977 32.069 89.954 32.5319C89.3127 32.9923 88.8332 33.6241 88.5168 34.426C88.2026 35.2291 88.0456 36.1417 88.0456 37.1626C88.0456 38.1846 88.2145 39.0972 88.5548 39.8991C88.8975 40.7022 89.3972 41.3352 90.054 41.798C90.7131 42.2585 91.5175 42.4881 92.4669 42.4881C93.326 42.4881 94.0422 42.3191 94.6134 41.9789C95.1868 41.6362 95.6295 41.1686 95.9412 40.5749C96.2517 39.9788 96.4433 39.303 96.5171 38.5475H98.5112C98.397 39.7123 98.0614 40.7296 97.507 41.5981C96.9513 42.4679 96.2291 43.1449 95.3415 43.6303C94.4563 44.1122 93.4533 44.3537 92.3337 44.3537C91.2771 44.3537 90.3265 44.1562 89.4829 43.7636C88.6381 43.3673 87.9183 42.8331 87.3222 42.1597C86.7285 41.4839 86.2751 40.7165 85.961 39.8563C85.6469 38.9937 85.4899 38.0954 85.4899 37.1626C85.4899 36.2298 85.6469 35.3338 85.961 34.4736C86.2751 33.611 86.7285 32.8436 87.3222 32.1702C87.9183 31.4944 88.6381 30.9602 89.4829 30.5663C90.3265 30.1701 91.2771 29.9714 92.3337 29.9714C93.2022 29.9714 93.9875 30.1035 94.6895 30.3664C95.3903 30.627 96.0007 30.9899 96.5218 31.4563C97.0418 31.9227 97.4499 32.4629 97.7449 33.0744C98.0424 33.6872 98.2185 34.3487 98.2732 35.059L95.9555 35.592Z" fill="#F97B57"/>
<path d="M105.794 44.3537C104.747 44.3537 103.802 44.1693 102.962 43.8016C102.124 43.434 101.406 42.92 100.806 42.2596C100.206 41.5969 99.746 40.8307 99.4259 39.961C99.1083 39.0888 98.95 38.156 98.95 37.1626C98.95 36.2298 99.1083 35.3338 99.4259 34.4736C99.746 33.611 100.202 32.8436 100.792 32.1702C101.382 31.4944 102.083 30.9602 102.895 30.5663C103.707 30.1701 104.611 29.9714 105.608 29.9714C106.547 29.9714 107.4 30.1499 108.169 30.5045C108.936 30.8602 109.598 31.3611 110.153 32.0084C110.708 32.6556 111.136 33.4195 111.438 34.2975C111.739 35.1768 111.89 36.1417 111.89 37.1911V37.667H101.52C101.564 38.5998 101.745 39.4279 102.063 40.1513C102.383 40.8747 102.86 41.4458 103.495 41.8646C104.129 42.2811 104.93 42.4881 105.899 42.4881C106.885 42.4881 107.74 42.2478 108.464 41.7647C109.187 41.2793 109.699 40.5701 110.001 39.6373H112C111.876 40.2441 111.644 40.8295 111.305 41.3935C110.968 41.9551 110.539 42.4583 110.015 42.9021C109.492 43.3471 108.874 43.7005 108.164 43.9634C107.452 44.2228 106.662 44.3537 105.794 44.3537ZM101.572 35.8823H109.482C109.403 34.5974 109.035 33.6027 108.378 32.8983C107.721 32.1916 106.798 31.837 105.608 31.837C104.843 31.837 104.177 32.0107 103.609 32.3558C103.041 32.702 102.586 33.1791 102.243 33.7883C101.903 34.3951 101.679 35.0923 101.572 35.8823Z" fill="#F97B57"/>
<mask id="mask0_696_5856" style="mask-type:luminance" maskUnits="userSpaceOnUse" x="1" y="0" width="44" height="29">
<path d="M1.39703 0.35083H44.0399V28.9821H1.39703V0.35083Z" fill="white"/>
</mask>
<g mask="url(#mask0_696_5856)">
<mask id="mask1_696_5856" style="mask-type:luminance" maskUnits="userSpaceOnUse" x="0" y="-9" width="51" height="43">
<path d="M11.2583 -8.94873L50.0986 5.47755L39.7567 33.32L0.917664 18.8937L11.2583 -8.94873Z" fill="white"/>
</mask>
<g mask="url(#mask1_696_5856)">
<mask id="mask2_696_5856" style="mask-type:luminance" maskUnits="userSpaceOnUse" x="0" y="-9" width="51" height="43">
<path d="M11.2581 -8.95007L50.0983 5.4762L39.7565 33.3186L0.917419 18.8923L11.2581 -8.95007Z" fill="white"/>
</mask>
<g mask="url(#mask2_696_5856)">
<path d="M33.2288 11.8538C34.2283 11.9014 35.2979 12.4249 35.5954 13.3803C35.8095 14.0704 35.5716 14.8366 35.1492 15.4232C34.7268 16.0086 34.1402 16.4523 33.5679 16.8938C30.8254 19.014 28.2292 21.3258 25.8068 23.8065C29.5761 22.4085 33.3454 21.0116 37.1148 19.6136C38.7091 19.0223 40.4474 18.425 42.0739 18.9224C43.0626 19.2246 43.9871 20.0824 43.9419 21.1164C43.905 21.9718 43.2447 22.6524 42.6272 23.2449C41.8098 24.0302 40.9924 24.8142 40.175 25.5995C40.7877 25.2771 41.6194 25.678 41.8597 26.3277C42.0989 26.9773 41.8121 27.7447 41.2803 28.1885C40.7485 28.6311 40.0215 28.7858 39.3302 28.7418C38.4759 28.6882 37.5978 28.3134 37.1433 27.5888C36.5032 26.5668 36.878 25.2069 37.4979 24.1729C38.0107 23.3187 38.6782 22.5584 39.4599 21.9397C35.4847 23.4483 31.5107 24.9558 27.5356 26.4645C26.2672 26.9452 24.7241 27.3925 23.6508 26.562C22.5871 25.7387 22.6276 24.0849 23.1583 22.8475C24.617 19.4399 28.5362 17.8706 30.9503 15.0579C26.9609 16.8866 22.9715 18.7153 18.982 20.5441C17.9064 21.0366 16.5155 21.4876 15.6517 20.6809C15.1342 20.1978 15.0211 19.4042 15.1532 18.7082C15.4138 17.3245 16.456 16.237 17.484 15.2756C22.6252 10.4653 28.5814 6.62939 34.5019 2.82204C23.2249 5.48719 13.7147 12.7652 3.85236 18.8498C3.50136 19.0663 3.11943 19.29 2.70776 19.265C2.04979 19.2258 1.57981 18.5357 1.56554 17.8765C1.55007 17.2174 1.8737 16.6023 2.2235 16.0431C3.25388 14.4011 4.59956 12.9579 6.16535 11.8169C6.07731 11.9966 5.98807 12.1774 5.89883 12.3571C7.97387 10.1203 10.0596 7.87273 12.4559 5.98333C9.68125 8.69369 7.04224 11.5409 4.55197 14.5142C6.41045 12.6819 8.26775 10.8496 10.125 9.01612C7.78945 11.5694 5.44552 14.1334 3.50136 16.9949C12.4107 10.7461 21.4913 4.41042 31.8403 1.03973C32.9766 0.669704 34.1521 0.332992 35.3455 0.392482C36.5698 0.454351 37.9762 1.24913 37.9119 2.47343C37.8643 3.37054 37.0577 4.01303 36.3188 4.52583C30.2424 8.73533 23.8079 12.5605 18.6334 17.8408C22.3123 15.8408 26.1221 14.0823 30.0306 12.5796C31.0598 12.1845 32.1294 11.8014 33.2288 11.8538Z" fill="#F35121"/>
</g>
</g>
</g>
</svg>
